<?xml version="1.0" encoding="UTF-8"?>
<svg id="Ebene_1" data-name="Ebene 1" xmlns="http://www.w3.org/2000/svg" viewBox="0 0 640.97 529.49">
  <g id="Generatives_Objekt" data-name="Generatives Objekt">
    <path d="M178.34,426.1l68.83.18,75.56,103.21-172.53-.36c-19.75-.04-36.61-9.89-49.38-23.84l-82.95-97.28C5.75,393.77,0,375.12,0,356.33l.04-173.15c0-18.08,5.75-36.83,17.31-50.76L105.73,25.85C120.16,9.72,139.02.48,161.1,0l244.2.02-84.64,106.91-134.68.13c-10.74,1.6-19.38,7.02-25.71,15.52l-41.51,45.51c-6.94,7.61-14.12,16.02-14.14,27.26l-.25,151.47c-.02,11.22,5.18,19.22,12.42,26.85l36.92,38.9c6.16,7.67,14.25,11.77,24.62,13.52Z"/>
    <path d="M562.62,426.29l78.36,103.07-218.22.12c-13.22-.09-24.21-4.82-32.98-14.46l-173.6-233.88,125.57-.08,98.25,131.57c5.6,8.64,13.57,13.13,23.88,13.54l98.75.11Z"/>
  </g>
</svg>